PathFileType	4	(X/Y/Z)	C:\Users\Basilio\Documents\Thesis Gigler\squatting_fais\c3dfiles\058\SLS_back_pre5\markers_experimental.trc
DataRate	CameraRate	NumFrames	NumMarkers	Units	OrigDataRate	OrigDataStartFrame	OrigNumFrames
200.000000	200.000000	4	61	mm	200.000000	1011	1156
Frame#	Time	FHD			LBHD			RBHD			C7			T10			CLAV			LSHO			LUUPA			LMUPA			LDUPA			LLEP			LMEP			LUL			LRFIN			RSHO			RUPA1			RMUPA			RDUPA			RLEP			RMEP			RUL			RUFIN			LASI			RASI			USACR			LSACR			RSACR			LTHI1			LTHI2			LTHI3			LTHI4			LLFC			LMFC			LTIB1			LTIB3			LTIB4			LLMAL			LMMAL			LHEE			LMT1			LMT5			RTHI			RTHI2			RTHI3			RTHI4			RLFC			RMFC			RTIB1			RTIB2			RTIB3			RTIB4			RLMAL			RMMAL			RHEE			RMT1			RMT2			RMT5			LTIB2			LMT2			LRAD			RRAD			
		X1	Y1	Z1	X2	Y2	Z2	X3	Y3	Z3	X4	Y4	Z4	X5	Y5	Z5	X6	Y6	Z6	X7	Y7	Z7	X8	Y8	Z8	X9	Y9	Z9	X10	Y10	Z10	X11	Y11	Z11	X12	Y12	Z12	X13	Y13	Z13	X14	Y14	Z14	X15	Y15	Z15	X16	Y16	Z16	X17	Y17	Z17	X18	Y18	Z18	X19	Y19	Z19	X20	Y20	Z20	X21	Y21	Z21	X22	Y22	Z22	X23	Y23	Z23	X24	Y24	Z24	X25	Y25	Z25	X26	Y26	Z26	X27	Y27	Z27	X28	Y28	Z28	X29	Y29	Z29	X30	Y30	Z30	X31	Y31	Z31	X32	Y32	Z32	X33	Y33	Z33	X34	Y34	Z34	X35	Y35	Z35	X36	Y36	Z36	X37	Y37	Z37	X38	Y38	Z38	X39	Y39	Z39	X40	Y40	Z40	X41	Y41	Z41	X42	Y42	Z42	X43	Y43	Z43	X44	Y44	Z44	X45	Y45	Z45	X46	Y46	Z46	X47	Y47	Z47	X48	Y48	Z48	X49	Y49	Z49	X50	Y50	Z50	X51	Y51	Z51	X52	Y52	Z52	X53	Y53	Z53	X54	Y54	Z54	X55	Y55	Z55	X56	Y56	Z56	X57	Y57	Z57	X58	Y58	Z58	X59	Y59	Z59	X60	Y60	Z60	X61	Y61	Z61	

1012	5.055	-265.5557861328126	1806.48974609375	-624.6660766601564	-419.6559448242189	1756.080810546875	-703.3632202148439	-248.218978881836	1813.901733398438	-766.2299194335939	-429.9450683593751	1594.260620117188	-715.9368896484376	-438.6220092773439	1289.861938476563	-713.7598876953126	-275.6993103027344	1548.3369140625	-697.1073608398439	-281.4172668457032	1602.19677734375	-849.2991943359377	-123.5312805175782	1540.631225585938	-955.9316406250002	-100.2398223876953	1578.403564453125	-930.1396484375002	-54.38235473632814	1541.972534179688	-944.9930419921877	19.96284866333008	1547.343627929688	-927.6171875000002	24.12841987609864	1492.323608398438	-891.8796386718752	287.3418579101563	1586.759155273438	-901.6997680664065	382.6024780273438	1594.439819335938	-820.6165161132815	-302.6940002441407	1601.325927734375	-547.3081054687501	-142.3980865478516	1521.970581054688	-440.8701477050782	-120.8897018432617	1561.698974609375	-462.852752685547	-73.60266876220705	1533.63818359375	-441.9834899902345	-5.523799896240235	1529.40478515625	-451.0764465332032	3.828317880630494	1472.440795898438	-504.8703613281251	260.7970886230469	1582.030029296875	-447.412567138672	352.5920104980469	1607.490844726563	-511.5530700683595	-267.3933410644532	1087.642333984375	-853.3924560546877	-264.2782592773438	1072.563354492188	-612.6296386718751	-454.4249877929689	1173.9404296875	-715.2841796875001	-463.5156250000001	1144.548706054688	-745.3313598632814	-458.7257385253907	1139.815307617188	-687.6823120117189	-271.0718383789063	822.1169433593752	-951.5706787109377	-226.1620788574219	748.5798339843751	-954.7833251953127	-181.5720825195313	752.2744750976564	-928.7066650390627	-246.1940612792969	691.9456176757814	-954.1647949218752	-253.613754272461	611.3796997070314	-947.6774902343752	-234.0042724609376	579.7526245117189	-821.2241821289065	-328.7337341308594	502.5570068359376	-926.8803710937502	-380.3323059082032	509.7522888183595	-953.9058227539065	-459.3911743164064	473.4568176269532	-922.9688720703127	-659.3461303710939	474.2132873535157	-919.372985839844	-625.5766601562501	429.4109191894532	-844.5307617187502	-646.7988281250001	525.9343872070314	-855.647155761719	-732.6494750976564	323.2688598632813	-839.549499511719	-776.100036621094	381.8209228515626	-918.2070312500002	-378.7493591308594	867.017761230469	-560.8464355468751	-344.3573608398438	810.9884033203127	-561.5075683593751	-310.8215637207032	809.617126464844	-561.7731933593751	-372.0815429687501	735.1766967773439	-585.0493774414064	-366.1948547363282	553.2305297851564	-614.5735473632814	-331.7504882812501	550.6431884765626	-748.5444335937501	-310.1310729980469	357.0626525878907	-715.2091674804689	-347.3410034179688	272.3375244140626	-657.8934936523439	-310.7512817382813	269.9285583496094	-689.3406982421876	-319.5802612304688	228.2851715087891	-727.4326171875001	-375.5914916992188	115.8013763427735	-698.1605224609376	-343.7761840820313	144.6781616210938	-783.234313964844	-439.3013610839845	101.2355651855469	-763.1479492187501	-229.4282836914063	60.8506202697754	-775.1239013671877	-223.1482238769532	59.79408645629884	-723.0375976562501	-273.0453491210938	26.81837844848634	-672.0117187500001	-391.4893493652345	553.0556640625001	-958.2629394531252	-750.3235473632814	324.0362548828126	-881.758972167969	282.7294921875001	1567.53662109375	-822.2159423828127	nan	nan	nan	
1013	5.06	-265.6057434082032	1806.38916015625	-624.8326416015626	-419.8365783691407	1756.01220703125	-703.3700561523439	-248.2700195312501	1813.931274414063	-766.2555541992189	-429.980438232422	1594.28173828125	-716.0222167968751	-438.6862182617189	1289.868774414063	-713.8247070312501	-275.7817077636719	1548.383666992188	-697.1777954101564	-281.5299682617188	1602.247680664063	-849.300231933594	-123.6603012084961	1540.61083984375	-956.0454101562502	-100.3200607299805	1578.39013671875	-930.1889648437502	-54.48710250854494	1541.927124023438	-945.143493652344	19.82199478149414	1547.289184570313	-927.6629638671877	24.0514030456543	1492.33447265625	-891.9138793945315	287.2499389648438	1586.732177734375	-901.780456542969	382.5107116699219	1594.512817382813	-820.7462158203127	-302.7537841796876	1601.346557617188	-547.3093261718751	-142.523422241211	1521.948852539063	-440.8918762207032	-121.1173553466797	1561.521240234375	-462.7999572753907	-73.79063415527345	1533.50048828125	-441.9304199218751	-5.766827106475831	1529.203491210938	-450.9665832519532	3.639139890670777	1472.298461914063	-504.7407836914064	260.3836364746094	1581.894287109375	-447.3338317871095	352.3326721191407	1607.473266601563	-511.6196899414064	-267.5999755859376	1087.616943359375	-853.5382080078127	-264.3177490234376	1072.550537109375	-612.7266235351564	-454.5716552734376	1173.871215820313	-715.3528442382814	-463.6427307128907	1144.4921875	-745.3966674804689	-458.7583007812501	1139.859619140625	-687.7942504882814	-271.2392578125001	822.019714355469	-951.5711059570315	-226.6592407226563	748.7205810546876	-954.6666259765627	-181.6258239746094	752.2218627929689	-928.7930908203127	-246.2239990234376	691.8544921875001	-954.1567382812502	-253.7966003417969	611.2681884765626	-947.587341308594	-234.0443572998047	579.7844238281251	-821.1904907226565	-329.0118103027344	502.2906188964845	-926.8035278320315	-380.4226684570313	509.544403076172	-953.6582641601565	-459.4271240234376	473.3456420898439	-922.8927001953127	-659.5012817382814	474.0076293945314	-919.1309814453127	-625.6964721679689	428.9822082519532	-844.2935180664065	-647.0267333984376	525.8064575195314	-855.378845214844	-732.7344970703126	322.9757690429688	-839.1822509765627	-776.1448364257815	381.5924987792969	-917.7706298828127	-378.7022705078126	867.0200195312502	-560.8757324218751	-344.0574645996094	811.1636962890627	-561.5682373046876	-310.7090454101563	809.675231933594	-561.7926025390626	-371.7881164550782	735.1274414062501	-585.0708007812501	-365.9625549316407	553.1474609375001	-614.7235107421876	-331.7252807617188	550.6768188476564	-748.7308959960939	-309.9783020019532	357.0221252441407	-715.2888183593751	-347.1029663085938	272.5340576171876	-658.0076293945314	-310.6732177734376	269.9354858398438	-689.4376831054689	-319.5601501464844	228.2401580810547	-727.5080566406251	-375.5894775390626	115.8781814575196	-698.1676025390626	-343.8138732910157	144.6590423583985	-783.2460937500002	-439.3081665039064	101.2033309936524	-763.1679077148439	-229.2945098876954	60.76808929443361	-775.1006469726565	-223.1285400390626	59.79620742797853	-723.0977172851564	-273.0003967285157	26.91061782836915	-672.0278930664064	-391.5445861816407	552.9045410156251	-958.2219848632815	-750.3923339843751	323.8225708007813	-881.4953613281252	282.6325378417969	1567.659057617188	-822.2663574218752	nan	nan	nan	
1014	5.065	-265.5932617187501	1806.416259765625	-624.7982177734376	-420.1011657714845	1755.963500976563	-703.3510742187501	-248.4240417480469	1813.904907226563	-766.2837524414064	-430.0869140625001	1594.222534179688	-716.0996093750001	-438.7327575683595	1289.910034179688	-713.9444580078126	-275.8777465820313	1548.382446289063	-697.2448730468751	-281.6885375976563	1602.26416015625	-849.3707275390627	-123.9332885742188	1540.613647460938	-956.1356201171877	-100.4380187988282	1578.358764648438	-930.368835449219	-54.50175094604494	1541.95068359375	-945.253356933594	19.78525161743164	1547.261108398438	-927.8079223632815	23.99235725402832	1492.357055664063	-892.1441650390627	287.1177978515626	1586.62548828125	-901.913269042969	382.2720642089844	1594.609252929688	-820.8406982421877	-302.8866882324219	1601.330688476563	-547.4276733398439	-142.643310546875	1521.939575195313	-440.8675231933595	-121.1500091552735	1561.5947265625	-462.8022460937501	-73.99587249755861	1533.377075195313	-441.8546447753907	-6.044394493103029	1528.88330078125	-450.8336486816407	3.516107082366944	1472.122436523438	-504.7090759277345	260.2759094238282	1581.854614257813	-447.2402343750001	352.1726989746094	1607.499755859375	-511.5307617187501	-267.6141967773438	1087.59228515625	-853.6573486328127	-264.3377990722657	1072.572387695313	-612.8562622070314	-454.6230773925782	1173.853759765625	-715.4490966796876	-463.7069396972657	1144.4873046875	-745.4722290039064	-458.8114318847657	1139.875610351563	-687.9777221679689	-271.4143371582032	821.9698486328127	-951.5257568359377	-226.8649902343751	748.6343383789064	-954.6072387695315	-181.6494750976563	752.2062988281251	-928.8397216796877	-246.4247436523438	691.7180786132814	-954.1202392578127	-254.0553588867188	611.1560668945314	-947.5175781250002	-234.2896270751954	579.6480102539064	-821.1821289062502	-329.0112609863282	502.2673339843751	-926.7969970703127	-380.5148315429688	509.3482971191407	-953.5644531250002	-459.8560485839845	473.0928649902345	-922.5784912109377	-659.5111083984376	473.7772216796876	-918.8397216796877	-625.6389160156251	428.7787475585939	-844.2259521484377	-647.1638793945314	525.5581665039064	-855.1018676757815	-732.7814331054689	322.7966003417969	-839.005310058594	-776.0261230468752	381.3964233398438	-917.5586547851565	-378.6485900878907	866.9592895507815	-560.8789062500001	-343.9122924804688	810.984313964844	-561.6130981445314	-310.6490783691407	809.6795043945315	-561.8928222656251	-371.5099792480469	734.9577026367189	-585.1312255859376	-365.8513183593751	553.0946655273439	-614.8507080078126	-331.4560241699219	550.6574707031251	-748.7957763671876	-309.9389648437501	357.0221862792969	-715.3803100585939	-347.0716552734376	272.4408264160157	-658.0861206054689	-310.6312866210938	269.9096679687501	-689.5400390625001	-319.5667724609376	228.248519897461	-727.6023559570314	-375.5198669433594	115.822006225586	-698.2542114257814	-343.7916870117188	144.6720275878907	-783.302429199219	-439.2996826171876	101.2359008789063	-763.1490478515626	-229.0168151855469	60.22555923461915	-775.2044677734377	-223.1041717529297	59.83543395996095	-723.1026611328126	-272.9624023437501	26.88819313049317	-672.0895996093751	-391.6875305175782	552.7633056640626	-958.122985839844	-750.7792968750001	323.5410766601563	-881.1409912109377	282.5840759277344	1567.577514648438	-822.3679809570315	nan	nan	nan	
1015	5.07	-265.8375244140626	1806.434692382813	-624.7442626953126	-420.2593383789064	1755.968383789063	-703.3820800781251	-248.4832763671876	1813.916015625	-766.3356933593751	-430.2395324707032	1594.209106445313	-716.1831665039064	-438.766082763672	1289.915405273438	-713.9996337890626	-275.8708496093751	1548.388305664063	-697.3557128906251	-281.8410949707032	1602.299560546875	-849.4634399414065	-124.0113220214844	1540.599609375	-956.2576293945315	-100.6135330200196	1578.287719726563	-930.498474121094	-54.64138793945314	1541.826416015625	-945.423278808594	19.63128471374512	1547.21484375	-927.8909301757815	23.73134994506836	1492.184326171875	-892.066101074219	287.0130615234376	1586.504028320313	-901.9886474609377	382.1139526367188	1594.5810546875	-820.9313964843752	-302.9387207031251	1601.28955078125	-547.4804687500001	-142.9281311035157	1521.96240234375	-440.7325439453126	-121.37451171875	1561.401611328125	-462.7027893066407	-74.17429351806642	1533.438598632813	-441.7917480468751	-6.42162084579468	1528.758544921875	-450.6172485351564	3.435073614120484	1472.056030273438	-504.5957336425782	259.5061035156251	1580.916748046875	-447.5986938476564	351.9891052246094	1607.480224609375	-511.4862060546876	-267.6626586914063	1087.55712890625	-853.8587036132815	-264.3646545410157	1072.545776367188	-612.9403686523439	-454.6506958007814	1173.793701171875	-715.5379028320314	-463.7641601562501	1144.496948242188	-745.5515136718751	-458.8486328125001	1139.927978515625	-688.1499023437501	-271.5168762207032	821.8731689453127	-951.549743652344	-226.9936218261719	748.5886840820314	-954.602233886719	-181.6632995605469	752.1990356445314	-928.8780517578127	-246.6238098144532	691.6094970703126	-954.092224121094	-254.1523742675782	611.0739746093751	-947.477478027344	-234.3162841796876	579.6625976562501	-821.076110839844	-329.0036315917969	502.2232055664064	-926.7854614257815	-380.7390441894532	509.1856384277345	-953.4585571289065	-459.9905700683595	472.9464111328126	-922.4033203125002	-659.6588745117189	473.6862182617189	-918.6843261718752	-625.8676147460939	428.4729309082032	-843.7940673828127	-647.1862182617189	525.3999633789064	-854.864929199219	-732.7860717773439	322.7157287597657	-838.8560180664065	-776.152038574219	381.2937927246094	-917.5065917968752	-378.5793762207032	866.9425048828127	-560.8978881835939	-343.8442687988282	810.9627075195315	-561.7860717773439	-310.5786437988282	809.7177734375002	-562.0021972656251	-371.2864074707032	734.9345703125001	-585.2192382812501	-365.6642761230469	553.1427001953126	-614.9207153320314	-331.3673706054688	550.6834716796876	-748.9046020507814	-309.7946166992188	357.0055847167969	-715.4480590820314	-347.0178527832032	272.4570007324219	-658.1389160156251	-310.5425415039063	269.9001159667969	-689.5980834960939	-319.4906005859376	228.1604919433594	-727.7133178710939	-375.5111083984376	115.8404006958008	-698.2849121093751	-343.7942504882813	144.6350860595703	-783.3309326171877	-439.2816772460939	101.2083740234375	-763.1979980468751	-229.3078765869141	60.72289276123048	-775.1293945312502	-223.1150970458985	59.80734252929689	-723.1669921875001	-272.8842468261719	27.09299468994141	-672.1094970703126	-391.8843994140626	552.6366577148439	-958.0106201171877	-751.0934448242189	323.2306823730469	-880.8726196289065	282.4515686035157	1567.638305664063	-822.4387207031252	nan	nan	nan	
